<svg xmlns="http://www.w3.org/2000/svg" viewBox="0 0 64 64" aria-hidden="true">
  <g fill="#ffffff">
    <rect x="3" y="14" width="3" height="36" rx="1.5"/>
    <rect x="9" y="10" width="3" height="44" rx="1.5"/>
    <rect x="15" y="6" width="3" height="52" rx="1.5"/>
    <rect x="21" y="10" width="3" height="44" rx="1.5"/>
    <rect x="27" y="14" width="3" height="16" rx="1.5"/>
    <rect x="34" y="14" width="3" height="16" rx="1.5"/>
    <rect x="40" y="10" width="3" height="44" rx="1.5"/>
    <rect x="46" y="6" width="3" height="52" rx="1.5"/>
    <rect x="52" y="10" width="3" height="44" rx="1.5"/>
    <rect x="58" y="14" width="3" height="36" rx="1.5"/>
    <rect x="24" y="30" width="16" height="4" rx="1.5"/>
    <rect x="24" y="36" width="3" height="18" rx="1.5"/>
    <rect x="37" y="36" width="3" height="18" rx="1.5"/>
    <rect x="27" y="42" width="10" height="3" rx="1.5"/>
  </g>
</svg>
